<svg width="512" height="512" viewBox="0 0 200 200" xmlns="http://www.w3.org/2000/svg">
  <defs>
    <style>
      :root {
        --fg: #f0f00bff;
        --bg: #0e172ad0;
      }
      @media (prefers-color-scheme: light) {
        :root {
          --fg: #111827;
          --bg: #f8fafc;
        }
      }
    </style>
  </defs>

  <g fill="var(--fg)">
    <circle cx="100" cy="100" r="18" />
    <circle cx="15" cy="100" r="9" />
    <circle cx="185" cy="30" r="9" />
    <circle cx="155" cy="170" r="14" />
    <circle cx="175" cy="120" r="4" />
    <circle cx="115" cy="45" r="4" />
    <circle cx="85" cy="155" r="4" />
  </g>

  <g fill="none" stroke="var(--fg)" stroke-linecap="round">
    <path d="M134.5 106.1 A35 35 0 1 1 106 65.5" stroke-width="3" />
    <path d="M115.4 142.3 A45 45 0 1 1 142.3 84.6" stroke-width="8" />
    <path d="M55 153.6 A70 70 0 1 1 153.6 145" stroke-width="9" />
    <path d="M24.8 72.6 A80 80 0 1 1 72.6 175.2" stroke-width="2" />
    <path d="M147.5 17.7 A95 95 0 1 1 17.7 52.5" stroke-width="8" />
  </g>

</svg>
